<svg xmlns="http://www.w3.org/2000/svg" xmlns:xlink="http://www.w3.org/1999/xlink" width="40" zoomAndPan="magnify" viewBox="0 0 30 30.000001" height="40" preserveAspectRatio="xMidYMid meet" version="1.0"><defs><clipPath id="527746ef46"><path d="M 17.070312 14.246094 L 17.414062 14.246094 L 17.414062 14.566406 L 17.070312 14.566406 Z M 17.070312 14.246094 " clip-rule="nonzero"/></clipPath><clipPath id="d2dc2081f6"><path d="M 17.394531 14.480469 C 16.742188 14.699219 17.324219 14.261719 17.324219 14.261719 " clip-rule="nonzero"/></clipPath><clipPath id="554f7acf89"><path d="M 2.839844 10 L 28.242188 10 L 28.242188 26.410156 L 2.839844 26.410156 Z M 2.839844 10 " clip-rule="nonzero"/></clipPath><clipPath id="af772fdc0d"><path d="M 10 1.730469 L 13 1.730469 L 13 10 L 10 10 Z M 10 1.730469 " clip-rule="nonzero"/></clipPath></defs><g clip-path="url(#527746ef46)"><g clip-path="url(#d2dc2081f6)"><path fill="#683e22" d="M 13.839844 11.359375 L 20.375 11.359375 L 20.375 17.671875 L 13.839844 17.671875 Z M 13.839844 11.359375 " fill-opacity="1" fill-rule="nonzero"/></g></g><g clip-path="url(#554f7acf89)"><path fill="#683e22" d="M 26.335938 12.917969 C 26.105469 13.78125 25.414062 15.105469 23.34375 15.777344 L 23.238281 15.777344 C 23.382812 15.234375 23.492188 14.699219 23.578125 14.1875 C 23.707031 13.414062 23.773438 12.699219 23.808594 12.089844 L 25.695312 12.089844 C 26.128906 12.089844 26.449219 12.5 26.335938 12.917969 Z M 24.097656 23.117188 C 23.527344 24.433594 22.21875 25.300781 20.773438 25.300781 L 7.222656 25.300781 C 5.773438 25.300781 4.476562 24.445312 3.902344 23.117188 Z M 8.480469 18.285156 C 8.410156 18.332031 8.328125 18.355469 8.25 18.355469 C 8.117188 18.355469 7.988281 18.289062 7.90625 18.171875 C 6.296875 15.757812 6.382812 12.414062 6.386719 12.269531 C 6.394531 12.042969 6.585938 11.863281 6.8125 11.871094 C 7.039062 11.878906 7.21875 12.070312 7.210938 12.296875 C 7.210938 12.328125 7.132812 15.523438 8.59375 17.710938 C 8.71875 17.902344 8.667969 18.15625 8.480469 18.285156 Z M 26.007812 10.105469 L 4.167969 10.105469 C 4.167969 10.105469 3.464844 18.558594 9 22.183594 C 9.058594 22.222656 9.121094 22.257812 9.183594 22.292969 L 3.28125 22.292969 C 3.144531 22.292969 3.015625 22.363281 2.941406 22.476562 C 2.863281 22.59375 2.847656 22.738281 2.902344 22.863281 L 3.117188 23.378906 C 3.804688 25.046875 5.417969 26.125 7.222656 26.125 L 20.773438 26.125 C 22.640625 26.125 24.320312 24.949219 24.957031 23.195312 L 25.082031 22.847656 C 25.125 22.71875 25.109375 22.578125 25.03125 22.46875 C 24.953125 22.359375 24.828125 22.292969 24.691406 22.292969 L 18.792969 22.292969 C 18.855469 22.257812 18.917969 22.222656 18.976562 22.183594 C 20.648438 21.085938 21.75 19.550781 22.476562 17.941406 L 22.574219 17.917969 C 26.769531 16.925781 27.953125 14.496094 28.195312 12.609375 C 28.367188 11.28125 27.34375 10.105469 26.007812 10.105469 " fill-opacity="1" fill-rule="nonzero"/></g><path fill="#683e22" d="M 8.148438 3.230469 C 8.371094 3.382812 8.964844 3.910156 9.03125 4.46875 C 9.066406 4.746094 8.96875 5.007812 8.738281 5.273438 C 7.421875 6.773438 8.089844 8.171875 8.628906 8.699219 C 8.710938 8.78125 8.8125 8.820312 8.917969 8.820312 C 9.023438 8.820312 9.132812 8.777344 9.210938 8.695312 C 9.371094 8.535156 9.371094 8.273438 9.207031 8.113281 C 9.167969 8.074219 8.21875 7.113281 9.359375 5.816406 C 9.75 5.371094 9.914062 4.882812 9.851562 4.363281 C 9.722656 3.320312 8.664062 2.582031 8.617188 2.550781 C 8.429688 2.421875 8.175781 2.46875 8.046875 2.65625 C 7.917969 2.84375 7.964844 3.097656 8.148438 3.230469 " fill-opacity="1" fill-rule="nonzero"/><g clip-path="url(#af772fdc0d)"><path fill="#683e22" d="M 10.710938 2.539062 C 10.722656 2.546875 11.75 3.269531 11.859375 4.160156 C 11.90625 4.539062 11.777344 4.894531 11.464844 5.246094 C 9.871094 7.0625 10.675781 8.75 11.324219 9.390625 C 11.40625 9.46875 11.511719 9.507812 11.613281 9.507812 C 11.722656 9.507812 11.828125 9.46875 11.910156 9.386719 C 12.066406 9.222656 12.066406 8.960938 11.902344 8.800781 C 11.851562 8.75 10.597656 7.484375 12.085938 5.789062 C 12.554688 5.257812 12.753906 4.671875 12.679688 4.058594 C 12.523438 2.796875 11.234375 1.898438 11.179688 1.859375 C 10.992188 1.730469 10.738281 1.777344 10.609375 1.964844 C 10.480469 2.152344 10.527344 2.410156 10.710938 2.539062 " fill-opacity="1" fill-rule="nonzero"/></g><path fill="#683e22" d="M 14.019531 8.699219 C 14.101562 8.78125 14.207031 8.820312 14.308594 8.820312 C 14.417969 8.820312 14.523438 8.777344 14.605469 8.695312 C 14.765625 8.535156 14.761719 8.273438 14.601562 8.113281 C 14.558594 8.074219 13.613281 7.113281 14.75 5.816406 C 15.140625 5.371094 15.308594 4.882812 15.242188 4.363281 C 15.113281 3.320312 14.054688 2.582031 14.011719 2.550781 C 13.824219 2.421875 13.566406 2.46875 13.4375 2.65625 C 13.308594 2.84375 13.355469 3.097656 13.542969 3.230469 C 13.765625 3.382812 14.359375 3.910156 14.425781 4.46875 C 14.460938 4.746094 14.363281 5.007812 14.128906 5.273438 C 12.8125 6.773438 13.484375 8.171875 14.019531 8.699219 " fill-opacity="1" fill-rule="nonzero"/></svg>