<svg xmlns="http://www.w3.org/2000/svg" xmlns:xlink="http://www.w3.org/1999/xlink" width="40" zoomAndPan="magnify" viewBox="0 0 30 30.000001" height="40" preserveAspectRatio="xMidYMid meet" version="1.0"><defs><clipPath id="8d858132ac"><path d="M 0.484375 10 L 29.515625 10 L 29.515625 28.234375 L 0.484375 28.234375 Z M 0.484375 10 " clip-rule="nonzero"/></clipPath><clipPath id="c6cd303414"><path d="M 9 0.652344 L 12 0.652344 L 12 10 L 9 10 Z M 9 0.652344 " clip-rule="nonzero"/></clipPath><clipPath id="3bb1808ccb"><path d="M 13.476562 16.21875 L 18.734375 16.21875 L 18.734375 18.609375 L 13.476562 18.609375 Z M 13.476562 16.21875 " clip-rule="nonzero"/></clipPath><clipPath id="a36ae7a1b1"><path d="M 14.566406 16.257812 C 18.628906 16.839844 18.484375 18.074219 18.195312 18.289062 C 17.902344 18.507812 17.105469 18.363281 16.816406 18.144531 C 16.597656 18 16.453125 17.492188 16.523438 17.128906 C 16.597656 16.839844 17.175781 16.332031 17.46875 16.257812 C 17.832031 16.183594 18.265625 16.402344 18.484375 16.621094 C 18.703125 16.839844 18.773438 17.347656 18.703125 17.636719 C 18.554688 18 18.121094 18.289062 17.613281 18.433594 C 16.742188 18.726562 14.417969 18.652344 13.839844 18.144531 C 13.476562 17.925781 13.402344 17.273438 13.546875 16.984375 C 13.621094 16.621094 14.566406 16.257812 14.566406 16.257812 " clip-rule="nonzero"/></clipPath></defs><g clip-path="url(#8d858132ac)"><path fill="#ffedd8" d="M 27.1875 13.363281 C 26.925781 14.34375 26.136719 15.851562 23.789062 16.613281 L 23.667969 16.613281 C 23.832031 15.992188 23.957031 15.386719 24.054688 14.804688 C 24.199219 13.929688 24.277344 13.113281 24.316406 12.421875 L 26.460938 12.421875 C 26.949219 12.421875 27.316406 12.886719 27.1875 13.363281 Z M 24.644531 24.953125 C 23.996094 26.449219 22.511719 27.433594 20.871094 27.433594 L 5.472656 27.433594 C 3.824219 27.433594 2.347656 26.464844 1.695312 24.953125 Z M 6.898438 19.460938 C 6.820312 19.515625 6.730469 19.539062 6.640625 19.539062 C 6.488281 19.539062 6.339844 19.464844 6.25 19.332031 C 4.417969 16.59375 4.515625 12.789062 4.519531 12.628906 C 4.527344 12.371094 4.746094 12.167969 5.003906 12.175781 C 5.261719 12.183594 5.464844 12.398438 5.457031 12.65625 C 5.457031 12.695312 5.367188 16.324219 7.027344 18.8125 C 7.171875 19.027344 7.113281 19.316406 6.898438 19.460938 Z M 26.816406 10.167969 L 2 10.167969 C 2 10.167969 1.203125 19.769531 7.488281 23.890625 C 7.558594 23.933594 7.628906 23.976562 7.699219 24.015625 L 0.996094 24.015625 C 0.835938 24.015625 0.691406 24.09375 0.605469 24.226562 C 0.519531 24.355469 0.5 24.519531 0.5625 24.664062 L 0.804688 25.25 C 1.589844 27.148438 3.421875 28.371094 5.472656 28.371094 L 20.871094 28.371094 C 22.988281 28.371094 24.898438 27.03125 25.621094 25.039062 L 25.761719 24.644531 C 25.8125 24.5 25.792969 24.339844 25.703125 24.214844 C 25.617188 24.089844 25.472656 24.015625 25.320312 24.015625 L 18.617188 24.015625 C 18.6875 23.976562 18.757812 23.933594 18.824219 23.890625 C 20.726562 22.644531 21.980469 20.902344 22.800781 19.070312 L 22.914062 19.042969 C 27.683594 17.917969 29.023438 15.15625 29.300781 13.011719 C 29.496094 11.503906 28.332031 10.167969 26.816406 10.167969 " fill-opacity="1" fill-rule="nonzero"/></g><path fill="#ffedd8" d="M 6.523438 2.355469 C 6.777344 2.53125 7.449219 3.128906 7.527344 3.765625 C 7.566406 4.078125 7.457031 4.375 7.191406 4.675781 C 5.695312 6.378906 6.457031 7.96875 7.066406 8.570312 C 7.160156 8.660156 7.277344 8.707031 7.398438 8.707031 C 7.519531 8.707031 7.640625 8.660156 7.730469 8.566406 C 7.914062 8.382812 7.910156 8.085938 7.726562 7.902344 C 7.679688 7.859375 6.601562 6.765625 7.894531 5.292969 C 8.339844 4.789062 8.53125 4.234375 8.457031 3.644531 C 8.308594 2.460938 7.109375 1.617188 7.054688 1.582031 C 6.84375 1.4375 6.550781 1.492188 6.40625 1.703125 C 6.257812 1.914062 6.3125 2.207031 6.523438 2.355469 " fill-opacity="1" fill-rule="nonzero"/><g clip-path="url(#c6cd303414)"><path fill="#ffedd8" d="M 9.4375 1.570312 C 9.449219 1.578125 10.617188 2.402344 10.742188 3.414062 C 10.792969 3.839844 10.644531 4.246094 10.292969 4.648438 C 8.476562 6.710938 9.394531 8.628906 10.132812 9.355469 C 10.222656 9.445312 10.34375 9.488281 10.460938 9.488281 C 10.582031 9.488281 10.703125 9.441406 10.792969 9.351562 C 10.976562 9.164062 10.972656 8.867188 10.789062 8.6875 C 10.726562 8.628906 9.308594 7.1875 10.996094 5.265625 C 11.53125 4.660156 11.757812 3.996094 11.667969 3.296875 C 11.492188 1.863281 10.03125 0.84375 9.96875 0.800781 C 9.753906 0.652344 9.464844 0.707031 9.316406 0.917969 C 9.171875 1.132812 9.222656 1.421875 9.4375 1.570312 " fill-opacity="1" fill-rule="nonzero"/></g><path fill="#ffedd8" d="M 13.195312 8.570312 C 13.285156 8.660156 13.40625 8.707031 13.523438 8.707031 C 13.644531 8.707031 13.765625 8.660156 13.859375 8.566406 C 14.039062 8.382812 14.039062 8.085938 13.851562 7.902344 C 13.804688 7.859375 12.730469 6.765625 14.023438 5.292969 C 14.46875 4.789062 14.65625 4.234375 14.585938 3.644531 C 14.4375 2.460938 13.234375 1.617188 13.183594 1.582031 C 12.972656 1.4375 12.679688 1.488281 12.53125 1.703125 C 12.386719 1.914062 12.4375 2.207031 12.652344 2.355469 C 12.902344 2.53125 13.578125 3.128906 13.65625 3.761719 C 13.691406 4.078125 13.582031 4.375 13.320312 4.675781 C 11.820312 6.378906 12.582031 7.96875 13.195312 8.570312 " fill-opacity="1" fill-rule="nonzero"/><g clip-path="url(#3bb1808ccb)"><g clip-path="url(#a36ae7a1b1)"><path fill="#ffedd8" d="M 10.644531 13.355469 L 21.691406 13.355469 L 21.691406 21.410156 L 10.644531 21.410156 Z M 10.644531 13.355469 " fill-opacity="1" fill-rule="nonzero"/></g></g></svg>