<svg xmlns="http://www.w3.org/2000/svg" xmlns:xlink="http://www.w3.org/1999/xlink" width="40" zoomAndPan="magnify" viewBox="0 0 30 30.000001" height="40" preserveAspectRatio="xMidYMid meet" version="1.0"><defs><clipPath id="8715a8e28f"><path d="M 17.070312 14.246094 L 17.414062 14.246094 L 17.414062 14.566406 L 17.070312 14.566406 Z M 17.070312 14.246094 " clip-rule="nonzero"/></clipPath><clipPath id="8779ed62eb"><path d="M 17.394531 14.480469 C 16.742188 14.699219 17.324219 14.261719 17.324219 14.261719 " clip-rule="nonzero"/></clipPath><clipPath id="60b336ee8c"><path d="M 15 1.796875 L 27.277344 1.796875 L 27.277344 14 L 15 14 Z M 15 1.796875 " clip-rule="nonzero"/></clipPath><clipPath id="61e2a48667"><path d="M 2.601562 10 L 26 10 L 26 27.203125 L 2.601562 27.203125 Z M 2.601562 10 " clip-rule="nonzero"/></clipPath></defs><g clip-path="url(#8715a8e28f)"><g clip-path="url(#8779ed62eb)"><path fill="#683e22" d="M 13.839844 11.359375 L 20.375 11.359375 L 20.375 17.671875 L 13.839844 17.671875 Z M 13.839844 11.359375 " fill-opacity="1" fill-rule="nonzero"/></g></g><g clip-path="url(#60b336ee8c)"><path fill="#683e22" d="M 21.375 1.816406 C 18.078125 1.816406 15.394531 4.5 15.394531 7.796875 C 15.394531 8.417969 15.488281 9.019531 15.667969 9.585938 C 16.128906 9.589844 16.59375 9.597656 17.058594 9.617188 C 16.824219 9.058594 16.691406 8.441406 16.691406 7.796875 C 16.691406 5.203125 18.78125 3.113281 21.375 3.113281 C 23.964844 3.113281 26.058594 5.203125 26.058594 7.796875 C 26.058594 10.042969 24.488281 11.910156 22.378906 12.367188 C 22.585938 12.765625 22.765625 13.167969 22.933594 13.570312 C 25.476562 12.878906 27.355469 10.550781 27.355469 7.796875 C 27.355469 4.5 24.671875 1.816406 21.375 1.816406 Z M 21.375 1.816406 " fill-opacity="1" fill-rule="evenodd"/></g><path fill="#683e22" d="M 20.46875 6.152344 L 21.074219 6.152344 C 21.527344 6.152344 21.828125 6.164062 21.976562 6.195312 C 22.769531 6.347656 22.941406 7.472656 22.144531 7.820312 C 21.980469 7.886719 21.648438 7.917969 21.152344 7.917969 L 20.46875 7.917969 Z M 19.214844 5.101562 L 19.214844 9.789062 C 19.648438 9.832031 20.121094 9.96875 20.46875 10.152344 L 20.46875 8.972656 L 21.285156 8.972656 C 21.855469 8.972656 22.289062 8.941406 22.585938 8.882812 C 22.804688 8.832031 23.023438 8.738281 23.234375 8.589844 C 23.449219 8.441406 23.625 8.238281 23.765625 7.980469 C 23.902344 7.714844 23.972656 7.394531 23.972656 7.015625 C 23.972656 6.519531 23.851562 6.117188 23.613281 5.804688 C 23.371094 5.492188 23.074219 5.289062 22.71875 5.195312 C 22.484375 5.136719 21.988281 5.101562 21.226562 5.101562 Z M 19.214844 5.101562 " fill-opacity="1" fill-rule="nonzero"/><g clip-path="url(#61e2a48667)"><path fill="#683e22" d="M 18.105469 19.53125 L 10.25 19.53125 C 9.917969 19.53125 9.839844 19.917969 9.996094 20.289062 C 10.320312 21.078125 11.148438 21.605469 11.996094 21.605469 L 16.359375 21.605469 C 17.207031 21.605469 18.039062 21.078125 18.359375 20.289062 C 18.511719 19.917969 18.433594 19.578125 18.105469 19.53125 Z M 5.230469 19.5 C 5.085938 19.9375 4.921875 20.796875 5.699219 21.082031 C 6.335938 21.316406 7.675781 21.484375 8.386719 21.589844 C 9.074219 21.691406 9.246094 21.289062 9.007812 20.683594 C 8.5625 19.5625 7.558594 19.328125 6.613281 19.164062 C 5.671875 19.003906 5.335938 19.171875 5.230469 19.5 Z M 21.742188 19.164062 C 20.800781 19.328125 19.792969 19.5625 19.351562 20.683594 C 19.109375 21.289062 19.28125 21.691406 19.96875 21.589844 C 20.683594 21.484375 22.023438 21.316406 22.65625 21.082031 C 23.433594 20.796875 23.269531 19.9375 23.128906 19.5 C 23.019531 19.171875 22.683594 19.003906 21.742188 19.164062 Z M 14.179688 11.613281 C 12.703125 11.617188 11.113281 11.667969 9.765625 11.761719 C 9.257812 11.796875 8.789062 12.070312 8.472656 12.582031 C 7.800781 13.671875 7.199219 14.703125 6.820312 15.84375 C 6.820312 15.84375 11.042969 16.269531 14.179688 16.269531 C 17.3125 16.269531 21.535156 15.84375 21.535156 15.84375 C 21.15625 14.703125 20.554688 13.671875 19.882812 12.582031 C 19.566406 12.070312 19.097656 11.796875 18.589844 11.761719 C 17.242188 11.667969 15.648438 11.617188 14.179688 11.613281 Z M 14.179688 10.585938 C 15.886719 10.585938 17.632812 10.578125 19.304688 10.8125 C 20.078125 10.917969 20.578125 11.375 20.9375 11.902344 C 21.753906 13.101562 22.277344 14.371094 22.738281 15.652344 L 24.785156 15.652344 C 25.355469 15.652344 25.695312 16.097656 25.550781 16.644531 C 25.386719 17.253906 25.199219 17.554688 24.308594 17.761719 L 23.964844 17.84375 C 24.230469 18.351562 24.425781 18.886719 24.425781 19.367188 L 24.425781 23.308594 C 24.425781 23.96875 23.96875 24.523438 23.441406 24.734375 L 23.441406 26.578125 C 23.441406 26.9375 23.152344 27.226562 22.789062 27.226562 L 20.949219 27.226562 C 20.589844 27.226562 20.296875 26.9375 20.296875 26.578125 L 20.296875 24.824219 L 8.058594 24.824219 L 8.058594 26.578125 C 8.058594 26.9375 7.769531 27.226562 7.410156 27.226562 L 5.566406 27.226562 C 5.207031 27.226562 4.917969 26.9375 4.917969 26.578125 L 4.917969 24.734375 C 4.386719 24.523438 3.929688 23.96875 3.929688 23.308594 L 3.929688 19.367188 C 3.929688 18.886719 4.125 18.351562 4.390625 17.84375 L 4.050781 17.761719 C 3.15625 17.554688 2.972656 17.253906 2.808594 16.644531 C 2.660156 16.097656 3 15.652344 3.570312 15.652344 L 5.621094 15.652344 C 6.078125 14.371094 6.601562 13.101562 7.417969 11.902344 C 7.777344 11.375 8.277344 10.917969 9.050781 10.8125 C 10.722656 10.578125 12.46875 10.585938 14.179688 10.585938 Z M 14.179688 10.585938 " fill-opacity="1" fill-rule="evenodd"/></g></svg>