<svg xmlns="http://www.w3.org/2000/svg" xmlns:xlink="http://www.w3.org/1999/xlink" width="40" zoomAndPan="magnify" viewBox="0 0 30 30.000001" height="40" preserveAspectRatio="xMidYMid meet" version="1.0"><defs><clipPath id="1b131ca434"><path d="M 13.476562 16.21875 L 18.734375 16.21875 L 18.734375 18.609375 L 13.476562 18.609375 Z M 13.476562 16.21875 " clip-rule="nonzero"/></clipPath><clipPath id="51bd91c329"><path d="M 14.566406 16.257812 C 18.628906 16.839844 18.484375 18.074219 18.195312 18.289062 C 17.902344 18.507812 17.105469 18.363281 16.816406 18.144531 C 16.597656 18 16.453125 17.492188 16.523438 17.128906 C 16.597656 16.839844 17.175781 16.332031 17.46875 16.257812 C 17.832031 16.183594 18.265625 16.402344 18.484375 16.621094 C 18.703125 16.839844 18.773438 17.347656 18.703125 17.636719 C 18.554688 18 18.121094 18.289062 17.613281 18.433594 C 16.742188 18.726562 14.417969 18.652344 13.839844 18.144531 C 13.476562 17.925781 13.402344 17.273438 13.546875 16.984375 C 13.621094 16.621094 14.566406 16.257812 14.566406 16.257812 " clip-rule="nonzero"/></clipPath><clipPath id="705f95b672"><path d="M 14.890625 15.585938 L 15.238281 15.585938 L 15.238281 15.910156 L 14.890625 15.910156 Z M 14.890625 15.585938 " clip-rule="nonzero"/></clipPath><clipPath id="31e04076f6"><path d="M 15.21875 15.824219 C 14.566406 16.039062 15.144531 15.605469 15.144531 15.605469 " clip-rule="nonzero"/></clipPath><clipPath id="52a2be3561"><path d="M 13.167969 16.570312 L 16.230469 16.570312 L 16.230469 17.492188 L 13.167969 17.492188 Z M 13.167969 16.570312 " clip-rule="nonzero"/></clipPath><clipPath id="7ccb102a0c"><path d="M 16.160156 17.417969 C 13.113281 16.984375 15.363281 16.476562 15.726562 16.695312 C 15.871094 16.839844 15.796875 17.417969 15.796875 17.417969 C 15.796875 17.417969 15.796875 16.695312 15.796875 16.695312 C 15.796875 16.695312 15.871094 17.273438 15.726562 17.417969 C 15.363281 17.636719 13.183594 17.054688 13.183594 16.910156 C 13.183594 16.765625 15.796875 16.402344 16.160156 16.695312 C 16.304688 16.839844 16.160156 17.417969 16.160156 17.417969 " clip-rule="nonzero"/></clipPath><clipPath id="372f11c32d"><path d="M 15 0 L 29.515625 0 L 29.515625 14 L 15 14 Z M 15 0 " clip-rule="nonzero"/></clipPath><clipPath id="a24a698bf2"><path d="M 0.484375 10 L 28 10 L 28 29.03125 L 0.484375 29.03125 Z M 0.484375 10 " clip-rule="nonzero"/></clipPath></defs><g clip-path="url(#1b131ca434)"><g clip-path="url(#51bd91c329)"><path fill="#ffedd8" d="M 10.644531 13.355469 L 21.691406 13.355469 L 21.691406 21.410156 L 10.644531 21.410156 Z M 10.644531 13.355469 " fill-opacity="1" fill-rule="nonzero"/></g></g><g clip-path="url(#705f95b672)"><g clip-path="url(#31e04076f6)"><path fill="#ffedd8" d="M 11.660156 12.703125 L 18.199219 12.703125 L 18.199219 19.015625 L 11.660156 19.015625 Z M 11.660156 12.703125 " fill-opacity="1" fill-rule="nonzero"/></g></g><g clip-path="url(#52a2be3561)"><g clip-path="url(#7ccb102a0c)"><path fill="#ffedd8" d="M 10.210938 13.789062 L 19.0625 13.789062 L 19.0625 20.324219 L 10.210938 20.324219 Z M 10.210938 13.789062 " fill-opacity="1" fill-rule="nonzero"/></g></g><g clip-path="url(#372f11c32d)"><path fill="#ffedd8" d="M 22.46875 0.0195312 C 18.609375 0.0195312 15.464844 3.164062 15.464844 7.023438 C 15.464844 7.75 15.578125 8.457031 15.785156 9.117188 C 16.328125 9.125 16.871094 9.132812 17.417969 9.152344 C 17.140625 8.5 16.988281 7.78125 16.988281 7.023438 C 16.988281 3.984375 19.429688 1.539062 22.46875 1.539062 C 25.503906 1.539062 27.953125 3.984375 27.953125 7.023438 C 27.953125 9.652344 26.113281 11.835938 23.644531 12.375 C 23.886719 12.839844 24.097656 13.3125 24.292969 13.78125 C 27.273438 12.976562 29.472656 10.25 29.472656 7.023438 C 29.472656 3.164062 26.328125 0.0195312 22.46875 0.0195312 Z M 22.46875 0.0195312 " fill-opacity="1" fill-rule="evenodd"/></g><path fill="#ffedd8" d="M 21.40625 5.097656 L 22.117188 5.097656 C 22.648438 5.097656 23 5.113281 23.175781 5.148438 C 24.101562 5.324219 24.304688 6.644531 23.371094 7.050781 C 23.179688 7.128906 22.789062 7.164062 22.210938 7.164062 L 21.40625 7.164062 Z M 19.9375 3.867188 L 19.9375 9.355469 C 20.449219 9.40625 21 9.566406 21.40625 9.78125 L 21.40625 8.398438 L 22.367188 8.398438 C 23.03125 8.398438 23.539062 8.363281 23.886719 8.292969 C 24.144531 8.238281 24.398438 8.125 24.648438 7.953125 C 24.898438 7.777344 25.105469 7.539062 25.265625 7.234375 C 25.429688 6.929688 25.511719 6.550781 25.511719 6.105469 C 25.511719 5.527344 25.371094 5.054688 25.089844 4.691406 C 24.808594 4.328125 24.457031 4.089844 24.042969 3.980469 C 23.769531 3.90625 23.1875 3.867188 22.292969 3.867188 Z M 19.9375 3.867188 " fill-opacity="1" fill-rule="nonzero"/><g clip-path="url(#a24a698bf2)"><path fill="#ffedd8" d="M 18.640625 20.761719 L 9.445312 20.761719 C 9.054688 20.761719 8.964844 21.210938 9.144531 21.648438 C 9.523438 22.570312 10.496094 23.191406 11.488281 23.191406 L 16.597656 23.191406 C 17.589844 23.191406 18.5625 22.570312 18.9375 21.648438 C 19.117188 21.210938 19.027344 20.816406 18.640625 20.761719 Z M 3.566406 20.726562 C 3.398438 21.238281 3.207031 22.246094 4.113281 22.578125 C 4.859375 22.851562 6.425781 23.046875 7.261719 23.171875 C 8.066406 23.292969 8.265625 22.820312 7.988281 22.109375 C 7.464844 20.800781 6.289062 20.523438 5.1875 20.332031 C 4.082031 20.144531 3.6875 20.34375 3.566406 20.726562 Z M 22.898438 20.332031 C 21.796875 20.523438 20.617188 20.800781 20.097656 22.109375 C 19.816406 22.820312 20.019531 23.292969 20.824219 23.171875 C 21.660156 23.046875 23.226562 22.851562 23.96875 22.578125 C 24.878906 22.246094 24.6875 21.238281 24.519531 20.726562 C 24.394531 20.34375 24 20.144531 22.898438 20.332031 Z M 14.042969 11.492188 C 12.316406 11.496094 10.457031 11.554688 8.878906 11.664062 C 8.28125 11.703125 7.730469 12.027344 7.363281 12.625 C 6.574219 13.902344 5.871094 15.109375 5.425781 16.445312 C 5.425781 16.445312 10.371094 16.941406 14.042969 16.941406 C 17.710938 16.941406 22.660156 16.445312 22.660156 16.445312 C 22.214844 15.109375 21.511719 13.902344 20.722656 12.625 C 20.351562 12.027344 19.804688 11.703125 19.207031 11.664062 C 17.632812 11.554688 15.765625 11.496094 14.042969 11.492188 Z M 14.042969 10.289062 C 16.046875 10.289062 18.089844 10.28125 20.046875 10.554688 C 20.953125 10.679688 21.539062 11.210938 21.957031 11.828125 C 22.910156 13.234375 23.527344 14.71875 24.0625 16.21875 L 26.460938 16.21875 C 27.128906 16.21875 27.527344 16.738281 27.355469 17.382812 C 27.164062 18.097656 26.949219 18.449219 25.902344 18.691406 L 25.5 18.785156 C 25.8125 19.378906 26.042969 20.007812 26.042969 20.570312 L 26.042969 25.183594 C 26.042969 25.957031 25.507812 26.609375 24.886719 26.851562 L 24.886719 29.011719 C 24.886719 29.433594 24.546875 29.773438 24.125 29.773438 L 21.96875 29.773438 C 21.546875 29.773438 21.207031 29.433594 21.207031 29.011719 L 21.207031 26.960938 L 6.878906 26.960938 L 6.878906 29.011719 C 6.878906 29.433594 6.539062 29.773438 6.117188 29.773438 L 3.960938 29.773438 C 3.539062 29.773438 3.199219 29.433594 3.199219 29.011719 L 3.199219 26.851562 C 2.578125 26.609375 2.042969 25.957031 2.042969 25.183594 L 2.042969 20.570312 C 2.042969 20.007812 2.273438 19.378906 2.582031 18.785156 L 2.183594 18.691406 C 1.136719 18.449219 0.921875 18.097656 0.730469 17.382812 C 0.554688 16.738281 0.953125 16.21875 1.625 16.21875 L 4.023438 16.21875 C 4.558594 14.71875 5.171875 13.234375 6.128906 11.828125 C 6.546875 11.210938 7.132812 10.679688 8.039062 10.554688 C 9.996094 10.28125 12.039062 10.289062 14.042969 10.289062 Z M 14.042969 10.289062 " fill-opacity="1" fill-rule="evenodd"/></g></svg>