<svg xmlns="http://www.w3.org/2000/svg" xmlns:xlink="http://www.w3.org/1999/xlink" width="40" zoomAndPan="magnify" viewBox="0 0 30 30.000001" height="40" preserveAspectRatio="xMidYMid meet" version="1.0"><defs><clipPath id="fce094fa16"><path d="M 13.476562 16.21875 L 18.734375 16.21875 L 18.734375 18.609375 L 13.476562 18.609375 Z M 13.476562 16.21875 " clip-rule="nonzero"/></clipPath><clipPath id="45c5be6729"><path d="M 14.566406 16.257812 C 18.628906 16.839844 18.484375 18.074219 18.195312 18.289062 C 17.902344 18.507812 17.105469 18.363281 16.816406 18.144531 C 16.597656 18 16.453125 17.492188 16.523438 17.128906 C 16.597656 16.839844 17.175781 16.332031 17.46875 16.257812 C 17.832031 16.183594 18.265625 16.402344 18.484375 16.621094 C 18.703125 16.839844 18.773438 17.347656 18.703125 17.636719 C 18.554688 18 18.121094 18.289062 17.613281 18.433594 C 16.742188 18.726562 14.417969 18.652344 13.839844 18.144531 C 13.476562 17.925781 13.402344 17.273438 13.546875 16.984375 C 13.621094 16.621094 14.566406 16.257812 14.566406 16.257812 " clip-rule="nonzero"/></clipPath><clipPath id="0a570f0e18"><path d="M 14.890625 15.585938 L 15.238281 15.585938 L 15.238281 15.910156 L 14.890625 15.910156 Z M 14.890625 15.585938 " clip-rule="nonzero"/></clipPath><clipPath id="0dc6dd8631"><path d="M 15.21875 15.824219 C 14.566406 16.039062 15.144531 15.605469 15.144531 15.605469 " clip-rule="nonzero"/></clipPath><clipPath id="f1964d863f"><path d="M 13.167969 16.570312 L 16.230469 16.570312 L 16.230469 17.492188 L 13.167969 17.492188 Z M 13.167969 16.570312 " clip-rule="nonzero"/></clipPath><clipPath id="1cbcef1e84"><path d="M 16.160156 17.417969 C 13.113281 16.984375 15.363281 16.476562 15.726562 16.695312 C 15.871094 16.839844 15.796875 17.417969 15.796875 17.417969 C 15.796875 17.417969 15.796875 16.695312 15.796875 16.695312 C 15.796875 16.695312 15.871094 17.273438 15.726562 17.417969 C 15.363281 17.636719 13.183594 17.054688 13.183594 16.910156 C 13.183594 16.765625 15.796875 16.402344 16.160156 16.695312 C 16.304688 16.839844 16.160156 17.417969 16.160156 17.417969 " clip-rule="nonzero"/></clipPath><clipPath id="77584218a0"><path d="M 22 8 L 29.515625 8 L 29.515625 15 L 22 15 Z M 22 8 " clip-rule="nonzero"/></clipPath><clipPath id="f486342798"><path d="M 0.484375 17 L 28 17 L 28 21 L 0.484375 21 Z M 0.484375 17 " clip-rule="nonzero"/></clipPath><clipPath id="1ad262b08d"><path d="M 6 5.738281 L 24 5.738281 L 24 19 L 6 19 Z M 6 5.738281 " clip-rule="nonzero"/></clipPath><clipPath id="06f3733941"><path d="M 0.511719 19.632812 L 28 19.632812 L 28 22.847656 L 0.511719 22.847656 Z M 0.511719 19.632812 " clip-rule="nonzero"/></clipPath></defs><g clip-path="url(#fce094fa16)"><g clip-path="url(#45c5be6729)"><path fill="#ffedd8" d="M 10.644531 13.355469 L 21.691406 13.355469 L 21.691406 21.410156 L 10.644531 21.410156 Z M 10.644531 13.355469 " fill-opacity="1" fill-rule="nonzero"/></g></g><g clip-path="url(#0a570f0e18)"><g clip-path="url(#0dc6dd8631)"><path fill="#ffedd8" d="M 11.660156 12.703125 L 18.199219 12.703125 L 18.199219 19.015625 L 11.660156 19.015625 Z M 11.660156 12.703125 " fill-opacity="1" fill-rule="nonzero"/></g></g><g clip-path="url(#f1964d863f)"><g clip-path="url(#1cbcef1e84)"><path fill="#ffedd8" d="M 10.210938 13.789062 L 19.0625 13.789062 L 19.0625 20.324219 L 10.210938 20.324219 Z M 10.210938 13.789062 " fill-opacity="1" fill-rule="nonzero"/></g></g><g clip-path="url(#77584218a0)"><path fill="#ffedd8" d="M 29.492188 11.539062 C 29.492188 9.664062 27.96875 8.136719 26.089844 8.136719 C 24.207031 8.136719 22.683594 9.664062 22.683594 11.539062 C 22.683594 13.421875 24.207031 14.945312 26.089844 14.945312 C 27.96875 14.945312 29.492188 13.421875 29.492188 11.539062 " fill-opacity="1" fill-rule="nonzero"/></g><g clip-path="url(#f486342798)"><path fill="#ffedd8" d="M 0.527344 19.855469 C 0.5 19.890625 0.503906 19.941406 0.539062 19.96875 C 0.570312 19.996094 0.613281 19.996094 0.644531 19.96875 C 2.496094 18.484375 4.855469 17.78125 7.21875 18.007812 C 7.4375 18.027344 7.648438 18.097656 7.839844 18.199219 C 11.410156 20.15625 15.585938 20.699219 19.535156 19.71875 C 22.171875 18.777344 25 18.507812 27.765625 18.933594 C 27.808594 18.941406 27.851562 18.914062 27.859375 18.871094 C 27.863281 18.832031 27.84375 18.796875 27.808594 18.78125 C 25.03125 17.660156 21.914062 17.734375 19.199219 18.988281 C 15.410156 19.875 11.429688 19.304688 8.042969 17.394531 C 7.898438 17.3125 7.746094 17.253906 7.582031 17.21875 C 4.917969 16.664062 2.171875 17.691406 0.527344 19.859375 L 0.527344 19.855469 " fill-opacity="1" fill-rule="nonzero"/></g><g clip-path="url(#1ad262b08d)"><path fill="#ffedd8" d="M 8.3125 11.613281 C 7.71875 12.023438 6.898438 11.878906 6.488281 11.28125 C 6.074219 10.6875 6.222656 9.871094 6.8125 9.457031 L 11.835938 5.960938 C 12.152344 5.742188 12.574219 5.753906 12.878906 5.992188 L 19.984375 11.59375 C 20.238281 11.796875 20.453125 12.042969 20.617188 12.320312 L 23.246094 16.769531 C 21.75 16.832031 20.28125 17.183594 18.914062 17.796875 C 15.367188 18.605469 11.644531 18.0625 8.472656 16.273438 C 8.371094 16.21875 8.265625 16.167969 8.152344 16.121094 L 15.234375 11.195312 L 12.269531 8.855469 L 8.3125 11.613281 " fill-opacity="1" fill-rule="nonzero"/></g><g clip-path="url(#06f3733941)"><path fill="#ffedd8" d="M 0.527344 22.507812 C 0.5 22.542969 0.503906 22.59375 0.539062 22.621094 C 0.570312 22.648438 0.613281 22.648438 0.644531 22.621094 C 2.496094 21.136719 4.855469 20.433594 7.21875 20.660156 C 7.4375 20.683594 7.648438 20.746094 7.839844 20.851562 C 11.410156 22.808594 15.585938 23.351562 19.535156 22.371094 C 22.171875 21.429688 25 21.160156 27.765625 21.585938 C 27.808594 21.59375 27.851562 21.566406 27.859375 21.523438 C 27.863281 21.484375 27.84375 21.449219 27.808594 21.433594 C 25.03125 20.3125 21.914062 20.386719 19.199219 21.640625 C 15.410156 22.527344 11.429688 21.957031 8.042969 20.046875 C 7.898438 19.964844 7.746094 19.90625 7.582031 19.871094 C 4.917969 19.316406 2.171875 20.34375 0.527344 22.511719 L 0.527344 22.507812 " fill-opacity="1" fill-rule="nonzero"/></g></svg>