<svg xmlns="http://www.w3.org/2000/svg" xmlns:xlink="http://www.w3.org/1999/xlink" width="40" zoomAndPan="magnify" viewBox="0 0 30 30.000001" height="40" preserveAspectRatio="xMidYMid meet" version="1.0"><defs><clipPath id="9e61375d14"><path d="M 17.070312 14.246094 L 17.414062 14.246094 L 17.414062 14.566406 L 17.070312 14.566406 Z M 17.070312 14.246094 " clip-rule="nonzero"/></clipPath><clipPath id="93c9e8f9ac"><path d="M 17.394531 14.480469 C 16.742188 14.699219 17.324219 14.261719 17.324219 14.261719 " clip-rule="nonzero"/></clipPath><clipPath id="fff18ebd94"><path d="M 22 8 L 29.515625 8 L 29.515625 16 L 22 16 Z M 22 8 " clip-rule="nonzero"/></clipPath><clipPath id="dfadfd4574"><path d="M 0.484375 17 L 28 17 L 28 21 L 0.484375 21 Z M 0.484375 17 " clip-rule="nonzero"/></clipPath><clipPath id="8f5d541a88"><path d="M 0.511719 19.847656 L 28 19.847656 L 28 23.0625 L 0.511719 23.0625 Z M 0.511719 19.847656 " clip-rule="nonzero"/></clipPath></defs><g clip-path="url(#9e61375d14)"><g clip-path="url(#93c9e8f9ac)"><path fill="#683e22" d="M 13.839844 11.359375 L 20.375 11.359375 L 20.375 17.671875 L 13.839844 17.671875 Z M 13.839844 11.359375 " fill-opacity="1" fill-rule="nonzero"/></g></g><g clip-path="url(#fff18ebd94)"><path fill="#683e22" d="M 29.492188 11.753906 C 29.492188 9.875 27.96875 8.351562 26.089844 8.351562 C 24.207031 8.351562 22.683594 9.875 22.683594 11.753906 C 22.683594 13.636719 24.207031 15.160156 26.089844 15.160156 C 27.96875 15.160156 29.492188 13.636719 29.492188 11.753906 " fill-opacity="1" fill-rule="nonzero"/></g><g clip-path="url(#dfadfd4574)"><path fill="#683e22" d="M 0.527344 20.070312 C 0.5 20.105469 0.503906 20.15625 0.539062 20.183594 C 0.570312 20.210938 0.613281 20.210938 0.644531 20.183594 C 2.496094 18.699219 4.855469 17.996094 7.21875 18.222656 C 7.4375 18.242188 7.648438 18.308594 7.839844 18.414062 C 11.410156 20.371094 15.585938 20.914062 19.535156 19.933594 C 22.171875 18.992188 25 18.722656 27.765625 19.148438 C 27.808594 19.15625 27.851562 19.128906 27.859375 19.085938 C 27.863281 19.046875 27.84375 19.011719 27.808594 18.996094 C 25.03125 17.871094 21.914062 17.949219 19.199219 19.203125 C 15.410156 20.089844 11.429688 19.519531 8.042969 17.609375 C 7.898438 17.527344 7.746094 17.46875 7.582031 17.433594 C 4.917969 16.878906 2.171875 17.902344 0.527344 20.074219 L 0.527344 20.070312 " fill-opacity="1" fill-rule="nonzero"/></g><path fill="#683e22" d="M 8.3125 11.828125 C 7.71875 12.238281 6.898438 12.09375 6.488281 11.496094 C 6.074219 10.902344 6.222656 10.085938 6.8125 9.671875 L 11.835938 6.175781 C 12.152344 5.957031 12.574219 5.96875 12.878906 6.207031 L 19.984375 11.808594 C 20.238281 12.007812 20.453125 12.257812 20.617188 12.535156 L 23.246094 16.984375 C 21.75 17.046875 20.28125 17.398438 18.914062 18.011719 C 15.367188 18.820312 11.644531 18.277344 8.472656 16.488281 C 8.371094 16.433594 8.265625 16.378906 8.152344 16.335938 L 15.234375 11.410156 L 12.269531 9.070312 L 8.3125 11.828125 " fill-opacity="1" fill-rule="nonzero"/><g clip-path="url(#8f5d541a88)"><path fill="#683e22" d="M 0.527344 22.722656 C 0.5 22.757812 0.503906 22.808594 0.539062 22.835938 C 0.570312 22.863281 0.613281 22.863281 0.644531 22.835938 C 2.496094 21.351562 4.855469 20.648438 7.21875 20.875 C 7.4375 20.894531 7.648438 20.960938 7.839844 21.066406 C 11.410156 23.023438 15.585938 23.566406 19.535156 22.585938 C 22.171875 21.644531 25 21.375 27.765625 21.800781 C 27.808594 21.808594 27.851562 21.78125 27.859375 21.738281 C 27.863281 21.699219 27.84375 21.664062 27.808594 21.648438 C 25.03125 20.527344 21.914062 20.601562 19.199219 21.855469 C 15.410156 22.742188 11.429688 22.167969 8.042969 20.261719 C 7.898438 20.179688 7.746094 20.121094 7.582031 20.085938 C 4.917969 19.53125 2.171875 20.554688 0.527344 22.726562 L 0.527344 22.722656 " fill-opacity="1" fill-rule="nonzero"/></g></svg>