<svg xmlns="http://www.w3.org/2000/svg" xmlns:xlink="http://www.w3.org/1999/xlink" width="40" zoomAndPan="magnify" viewBox="0 0 30 30.000001" height="40" preserveAspectRatio="xMidYMid meet" version="1.0"><defs><clipPath id="0acdac86ce"><path d="M 1.40625 25 L 5 25 L 5 27 L 1.40625 27 Z M 1.40625 25 " clip-rule="nonzero"/></clipPath><clipPath id="221f7073ab"><path d="M 4 26 L 5 26 L 5 29.03125 L 4 29.03125 Z M 4 26 " clip-rule="nonzero"/></clipPath><clipPath id="05f6396515"><path d="M 13 6 L 28.261719 6 L 28.261719 25 L 13 25 Z M 13 6 " clip-rule="nonzero"/></clipPath><clipPath id="96eb3f9f4b"><path d="M 13 5 L 28.261719 5 L 28.261719 25 L 13 25 Z M 13 5 " clip-rule="nonzero"/></clipPath><clipPath id="61bcc5da27"><path d="M 12.789062 18.078125 L 19.304688 18.078125 L 19.304688 20.386719 L 12.789062 20.386719 Z M 12.789062 18.078125 " clip-rule="nonzero"/></clipPath><clipPath id="d09a6c5825"><path d="M 17.03125 19.597656 C 14.710938 18.871094 18.628906 17.855469 19.136719 18.144531 C 19.28125 18.289062 19.355469 18.652344 19.210938 18.871094 C 18.917969 19.378906 15.652344 19.960938 14.855469 19.742188 C 14.492188 19.667969 14.203125 19.304688 14.203125 19.160156 C 14.273438 18.871094 17.683594 18.363281 18.195312 18.726562 C 18.339844 18.871094 18.410156 19.234375 18.265625 19.453125 C 17.832031 19.960938 13.402344 20.683594 12.96875 20.25 C 12.75 20.175781 12.75 19.816406 12.894531 19.667969 C 13.257812 19.160156 16.089844 18.433594 16.523438 18.726562 C 16.742188 18.871094 16.742188 19.453125 16.742188 19.453125 C 16.742188 19.453125 16.597656 18.726562 16.597656 18.726562 C 16.667969 18.726562 16.960938 19.160156 16.886719 19.304688 C 16.667969 19.667969 15.074219 20.105469 14.273438 20.105469 C 13.765625 20.105469 12.824219 19.886719 12.824219 19.667969 C 12.894531 19.378906 16.742188 18.433594 17.613281 18.726562 C 17.976562 18.871094 18.339844 19.304688 18.265625 19.453125 C 18.121094 19.742188 14.203125 19.523438 14.128906 19.378906 C 14.128906 19.160156 17.613281 17.925781 18.484375 18.144531 C 18.847656 18.21875 19.28125 18.652344 19.210938 18.871094 C 19.066406 19.304688 14.054688 19.523438 14.054688 19.453125 C 14.054688 19.453125 16.742188 18.582031 17.03125 18.871094 C 17.175781 19.015625 17.03125 19.597656 17.03125 19.597656 " clip-rule="nonzero"/></clipPath></defs><path fill="#f5f7bd" d="M 21.214844 3.386719 L 19.753906 3.386719 L 19.753906 10.074219 L 21.214844 10.074219 C 21.804688 10.074219 22.285156 10.550781 22.285156 11.140625 L 22.285156 4.453125 C 22.285156 3.863281 21.804688 3.386719 21.214844 3.386719 " fill-opacity="1" fill-rule="nonzero"/><path fill="#231f1f" d="M 19.929688 9.902344 L 21.214844 9.902344 C 21.566406 9.902344 21.886719 10.046875 22.109375 10.285156 L 22.109375 4.453125 C 22.109375 3.960938 21.710938 3.558594 21.214844 3.558594 L 19.929688 3.558594 Z M 22.457031 11.140625 L 22.109375 11.140625 C 22.109375 10.648438 21.710938 10.246094 21.214844 10.246094 L 19.582031 10.246094 L 19.582031 3.210938 L 21.214844 3.210938 C 21.898438 3.210938 22.457031 3.769531 22.457031 4.453125 L 22.457031 11.140625 " fill-opacity="1" fill-rule="nonzero"/><path fill="#231f1f" d="M 22.273438 2.855469 C 22.179688 2.855469 22.101562 2.777344 22.101562 2.679688 L 22.101562 0.171875 C 22.101562 0.078125 22.179688 0 22.273438 0 C 22.367188 0 22.445312 0.078125 22.445312 0.171875 L 22.445312 2.679688 C 22.445312 2.777344 22.367188 2.855469 22.273438 2.855469 " fill-opacity="1" fill-rule="nonzero"/><path fill="#231f1f" d="M 23.527344 1.601562 L 21.019531 1.601562 C 20.925781 1.601562 20.847656 1.523438 20.847656 1.425781 C 20.847656 1.332031 20.925781 1.253906 21.019531 1.253906 L 23.527344 1.253906 C 23.621094 1.253906 23.699219 1.332031 23.699219 1.425781 C 23.699219 1.523438 23.621094 1.601562 23.527344 1.601562 " fill-opacity="1" fill-rule="nonzero"/><path fill="#231f1f" d="M 25.121094 3.445312 L 23.242188 3.445312 C 23.144531 3.445312 23.070312 3.367188 23.070312 3.269531 C 23.070312 3.175781 23.144531 3.097656 23.242188 3.097656 L 25.121094 3.097656 C 25.21875 3.097656 25.292969 3.175781 25.292969 3.269531 C 25.292969 3.367188 25.21875 3.445312 25.121094 3.445312 " fill-opacity="1" fill-rule="nonzero"/><path fill="#231f1f" d="M 24.179688 4.382812 C 24.085938 4.382812 24.007812 4.304688 24.007812 4.210938 L 24.007812 2.332031 C 24.007812 2.234375 24.085938 2.15625 24.179688 2.15625 C 24.277344 2.15625 24.355469 2.234375 24.355469 2.332031 L 24.355469 4.210938 C 24.355469 4.304688 24.277344 4.382812 24.179688 4.382812 " fill-opacity="1" fill-rule="nonzero"/><path fill="#231f1f" d="M 2.847656 27.5 C 2.753906 27.5 2.675781 27.421875 2.675781 27.328125 L 2.675781 24.820312 C 2.675781 24.726562 2.753906 24.648438 2.847656 24.648438 C 2.945312 24.648438 3.019531 24.726562 3.019531 24.820312 L 3.019531 27.328125 C 3.019531 27.421875 2.945312 27.5 2.847656 27.5 " fill-opacity="1" fill-rule="nonzero"/><g clip-path="url(#0acdac86ce)"><path fill="#231f1f" d="M 4.101562 26.246094 L 1.59375 26.246094 C 1.5 26.246094 1.421875 26.171875 1.421875 26.074219 C 1.421875 25.980469 1.5 25.902344 1.59375 25.902344 L 4.101562 25.902344 C 4.195312 25.902344 4.273438 25.980469 4.273438 26.074219 C 4.273438 26.171875 4.195312 26.246094 4.101562 26.246094 " fill-opacity="1" fill-rule="nonzero"/></g><path fill="#231f1f" d="M 5.695312 28.089844 L 3.816406 28.089844 C 3.71875 28.089844 3.644531 28.015625 3.644531 27.917969 C 3.644531 27.824219 3.71875 27.746094 3.816406 27.746094 L 5.695312 27.746094 C 5.789062 27.746094 5.867188 27.824219 5.867188 27.917969 C 5.867188 28.015625 5.789062 28.089844 5.695312 28.089844 " fill-opacity="1" fill-rule="nonzero"/><g clip-path="url(#221f7073ab)"><path fill="#231f1f" d="M 4.753906 29.03125 C 4.660156 29.03125 4.582031 28.953125 4.582031 28.859375 L 4.582031 26.976562 C 4.582031 26.882812 4.660156 26.804688 4.753906 26.804688 C 4.851562 26.804688 4.929688 26.882812 4.929688 26.976562 L 4.929688 28.859375 C 4.929688 28.953125 4.851562 29.03125 4.753906 29.03125 " fill-opacity="1" fill-rule="nonzero"/></g><path fill="#231f1f" d="M 17.421875 24.6875 L 12.234375 24.6875 C 12.140625 24.6875 12.0625 24.609375 12.0625 24.515625 C 12.0625 24.417969 12.140625 24.339844 12.234375 24.339844 L 17.421875 24.339844 C 17.519531 24.339844 17.59375 24.417969 17.59375 24.515625 C 17.59375 24.609375 17.519531 24.6875 17.421875 24.6875 " fill-opacity="1" fill-rule="nonzero"/><path fill="#231f1f" d="M 19.714844 24.6875 L 18.113281 24.6875 C 18.019531 24.6875 17.941406 24.609375 17.941406 24.515625 C 17.941406 24.417969 18.019531 24.339844 18.113281 24.339844 L 19.714844 24.339844 C 19.808594 24.339844 19.886719 24.417969 19.886719 24.515625 C 19.886719 24.609375 19.808594 24.6875 19.714844 24.6875 " fill-opacity="1" fill-rule="nonzero"/><g clip-path="url(#05f6396515)"><path fill="#f5f7bd" d="M 25.65625 24.441406 L 13.703125 22.449219 L 16.433594 6.050781 L 28.386719 8.042969 L 25.65625 24.441406 " fill-opacity="1" fill-rule="nonzero"/></g><g clip-path="url(#96eb3f9f4b)"><path fill="#231f1f" d="M 13.902344 22.308594 L 25.511719 24.242188 L 28.1875 8.183594 L 16.574219 6.25 Z M 25.796875 24.640625 L 13.503906 22.589844 L 16.292969 5.851562 L 28.585938 7.898438 L 25.796875 24.640625 " fill-opacity="1" fill-rule="nonzero"/></g><path fill="#f5f7bd" d="M 17.824219 8.296875 L 26.34375 9.714844 " fill-opacity="1" fill-rule="nonzero"/><path fill="#231f1f" d="M 26.316406 9.882812 L 17.792969 8.464844 L 17.851562 8.125 L 26.375 9.542969 L 26.316406 9.882812 " fill-opacity="1" fill-rule="nonzero"/><path fill="#f5f7bd" d="M 17.421875 10.714844 L 25.941406 12.136719 " fill-opacity="1" fill-rule="nonzero"/><path fill="#231f1f" d="M 25.914062 12.304688 L 17.390625 10.886719 L 17.449219 10.546875 L 25.96875 11.964844 L 25.914062 12.304688 " fill-opacity="1" fill-rule="nonzero"/><path fill="#f5f7bd" d="M 17.015625 13.136719 L 25.539062 14.558594 " fill-opacity="1" fill-rule="nonzero"/><path fill="#231f1f" d="M 25.511719 14.726562 L 16.988281 13.308594 L 17.046875 12.96875 L 25.566406 14.386719 L 25.511719 14.726562 " fill-opacity="1" fill-rule="nonzero"/><path fill="#f5f7bd" d="M 16.613281 15.558594 L 25.136719 16.980469 " fill-opacity="1" fill-rule="nonzero"/><path fill="#231f1f" d="M 25.105469 17.148438 L 16.585938 15.730469 L 16.640625 15.386719 L 25.164062 16.808594 L 25.105469 17.148438 " fill-opacity="1" fill-rule="nonzero"/><path fill="#f5f7bd" d="M 16.210938 17.980469 L 24.730469 19.398438 " fill-opacity="1" fill-rule="nonzero"/><path fill="#231f1f" d="M 24.703125 19.570312 L 16.183594 18.152344 L 16.238281 17.8125 L 24.761719 19.230469 L 24.703125 19.570312 " fill-opacity="1" fill-rule="nonzero"/><path fill="#f5f7bd" d="M 15.808594 20.402344 L 24.328125 21.824219 " fill-opacity="1" fill-rule="nonzero"/><path fill="#231f1f" d="M 24.300781 21.992188 L 15.777344 20.574219 L 15.835938 20.230469 L 24.355469 21.652344 L 24.300781 21.992188 " fill-opacity="1" fill-rule="nonzero"/><path fill="#f5f7bd" d="M 19.753906 3.277344 L 19.753906 10.074219 L 21.214844 10.074219 C 21.804688 10.074219 22.285156 10.550781 22.285156 11.140625 L 22.285156 24.855469 C 22.285156 25.445312 21.804688 25.925781 21.214844 25.925781 L 5.6875 25.925781 C 5.097656 25.925781 4.621094 25.445312 4.621094 24.855469 L 4.621094 3.277344 C 4.621094 2.6875 5.097656 2.210938 5.6875 2.210938 L 18.6875 2.210938 C 19.277344 2.210938 19.753906 2.6875 19.753906 3.277344 " fill-opacity="1" fill-rule="nonzero"/><path fill="#231f1f" d="M 5.6875 2.382812 C 5.195312 2.382812 4.792969 2.785156 4.792969 3.277344 L 4.792969 24.855469 C 4.792969 25.351562 5.195312 25.75 5.6875 25.75 L 21.214844 25.75 C 21.710938 25.75 22.109375 25.351562 22.109375 24.855469 L 22.109375 11.140625 C 22.109375 10.648438 21.710938 10.246094 21.214844 10.246094 L 19.582031 10.246094 L 19.582031 3.277344 C 19.582031 2.785156 19.179688 2.382812 18.6875 2.382812 Z M 21.214844 26.097656 L 5.6875 26.097656 C 5.003906 26.097656 4.445312 25.539062 4.445312 24.855469 L 4.445312 3.277344 C 4.445312 2.59375 5.003906 2.035156 5.6875 2.035156 L 18.6875 2.035156 C 19.371094 2.035156 19.929688 2.59375 19.929688 3.277344 L 19.929688 9.902344 L 21.214844 9.902344 C 21.898438 9.902344 22.457031 10.457031 22.457031 11.140625 L 22.457031 24.855469 C 22.457031 25.539062 21.898438 26.097656 21.214844 26.097656 " fill-opacity="1" fill-rule="nonzero"/><path fill="#f5f7bd" d="M 17.539062 8.875 C 17.539062 9.460938 17.066406 9.933594 16.484375 9.933594 L 7.988281 9.933594 C 7.402344 9.933594 6.929688 9.460938 6.929688 8.875 L 6.929688 5.652344 C 6.929688 5.070312 7.402344 4.597656 7.988281 4.597656 L 16.484375 4.597656 C 17.066406 4.597656 17.539062 5.070312 17.539062 5.652344 L 17.539062 8.875 " fill-opacity="1" fill-rule="nonzero"/><path fill="#231f1f" d="M 7.988281 4.769531 C 7.5 4.769531 7.105469 5.164062 7.105469 5.652344 L 7.105469 8.875 C 7.105469 9.363281 7.5 9.757812 7.988281 9.757812 L 16.484375 9.757812 C 16.96875 9.757812 17.367188 9.363281 17.367188 8.875 L 17.367188 5.652344 C 17.367188 5.164062 16.96875 4.769531 16.484375 4.769531 Z M 16.484375 10.105469 L 7.988281 10.105469 C 7.308594 10.105469 6.757812 9.554688 6.757812 8.875 L 6.757812 5.652344 C 6.757812 4.972656 7.308594 4.421875 7.988281 4.421875 L 16.484375 4.421875 C 17.160156 4.421875 17.710938 4.972656 17.710938 5.652344 L 17.710938 8.875 C 17.710938 9.554688 17.160156 10.105469 16.484375 10.105469 " fill-opacity="1" fill-rule="nonzero"/><g clip-path="url(#61bcc5da27)"><g clip-path="url(#d09a6c5825)"><path fill="#f5f7bd" d="M 9.917969 15.242188 L 22.175781 15.242188 L 22.175781 23.226562 L 9.917969 23.226562 Z M 9.917969 15.242188 " fill-opacity="1" fill-rule="nonzero"/></g></g></svg>