<svg xmlns="http://www.w3.org/2000/svg" xmlns:xlink="http://www.w3.org/1999/xlink" width="40" zoomAndPan="magnify" viewBox="0 0 30 30.000001" height="40" preserveAspectRatio="xMidYMid meet" version="1.0"><defs><clipPath id="5c6c78d95a"><path d="M 12 20 L 18 20 L 18 25.402344 L 12 25.402344 Z M 12 20 " clip-rule="nonzero"/></clipPath><clipPath id="e0e952b8ca"><path d="M 0.484375 2.902344 L 29.515625 2.902344 L 29.515625 12 L 0.484375 12 Z M 0.484375 2.902344 " clip-rule="nonzero"/></clipPath><clipPath id="c08b370b39"><path d="M 22.152344 5.207031 L 22.496094 5.207031 L 22.496094 5.527344 L 22.152344 5.527344 Z M 22.152344 5.207031 " clip-rule="nonzero"/></clipPath><clipPath id="0dc193942c"><path d="M 22.476562 5.445312 C 21.824219 5.660156 22.402344 5.226562 22.402344 5.226562 " clip-rule="nonzero"/></clipPath></defs><g clip-path="url(#5c6c78d95a)"><path fill="#683e22" d="M 15.390625 20.332031 C 13.984375 20.332031 12.832031 21.484375 12.832031 22.890625 C 12.832031 24.296875 13.984375 25.449219 15.390625 25.449219 C 16.796875 25.449219 17.949219 24.296875 17.949219 22.890625 C 17.949219 21.460938 16.796875 20.332031 15.390625 20.332031 Z M 15.390625 20.332031 " fill-opacity="1" fill-rule="nonzero"/></g><path fill="#683e22" d="M 15.390625 14.273438 C 13.042969 14.273438 10.828125 15.195312 9.171875 16.832031 C 8.503906 17.5 8.503906 18.582031 9.171875 19.25 C 9.492188 19.574219 9.929688 19.757812 10.390625 19.757812 C 10.851562 19.757812 11.289062 19.574219 11.613281 19.25 C 12.625 18.234375 13.960938 17.683594 15.390625 17.683594 C 16.820312 17.683594 18.179688 18.234375 19.191406 19.25 C 19.515625 19.574219 19.953125 19.757812 20.414062 19.757812 C 20.875 19.757812 21.3125 19.574219 21.636719 19.25 C 22.304688 18.582031 22.304688 17.5 21.636719 16.832031 C 19.953125 15.195312 17.742188 14.273438 15.390625 14.273438 Z M 15.390625 14.273438 " fill-opacity="1" fill-rule="nonzero"/><g clip-path="url(#e0e952b8ca)"><path fill="#683e22" d="M 29.628906 8.882812 C 25.828125 5.078125 20.757812 2.984375 15.390625 2.984375 C 10.023438 2.984375 4.953125 5.058594 1.152344 8.859375 C 0.484375 9.527344 0.484375 10.609375 1.152344 11.277344 C 1.476562 11.601562 1.914062 11.785156 2.375 11.785156 C 2.835938 11.785156 3.273438 11.601562 3.59375 11.277344 C 6.726562 8.144531 10.921875 6.417969 15.390625 6.417969 C 19.859375 6.417969 24.054688 8.144531 27.210938 11.300781 C 27.535156 11.625 27.972656 11.808594 28.433594 11.808594 C 28.894531 11.808594 29.332031 11.625 29.652344 11.300781 C 30.296875 10.632812 30.296875 9.550781 29.628906 8.882812 Z M 29.628906 8.882812 " fill-opacity="1" fill-rule="nonzero"/></g><path fill="#683e22" d="M 15.390625 8.765625 C 11.566406 8.765625 7.972656 10.242188 5.253906 12.9375 C 4.929688 13.257812 4.746094 13.695312 4.746094 14.15625 C 4.746094 14.617188 4.929688 15.054688 5.253906 15.378906 C 5.574219 15.703125 6.011719 15.886719 6.472656 15.886719 C 6.933594 15.886719 7.375 15.703125 7.695312 15.378906 C 9.746094 13.328125 12.488281 12.199219 15.390625 12.199219 C 18.292969 12.199219 21.035156 13.328125 23.085938 15.378906 C 23.410156 15.703125 23.847656 15.886719 24.308594 15.886719 C 24.769531 15.886719 25.207031 15.703125 25.527344 15.378906 C 25.851562 15.054688 26.035156 14.617188 26.035156 14.15625 C 26.035156 13.695312 25.851562 13.257812 25.527344 12.9375 C 22.808594 10.265625 19.214844 8.765625 15.390625 8.765625 Z M 15.390625 8.765625 " fill-opacity="1" fill-rule="nonzero"/><g clip-path="url(#c08b370b39)"><g clip-path="url(#0dc193942c)"><path fill="#683e22" d="M 18.917969 2.324219 L 25.457031 2.324219 L 25.457031 8.636719 L 18.917969 8.636719 Z M 18.917969 2.324219 " fill-opacity="1" fill-rule="nonzero"/></g></g></svg>