<svg xmlns="http://www.w3.org/2000/svg" xmlns:xlink="http://www.w3.org/1999/xlink" width="40" zoomAndPan="magnify" viewBox="0 0 30 30.000001" height="40" preserveAspectRatio="xMidYMid meet" version="1.0"><defs><clipPath id="0aa322226e"><path d="M 13.476562 16.21875 L 18.734375 16.21875 L 18.734375 18.609375 L 13.476562 18.609375 Z M 13.476562 16.21875 " clip-rule="nonzero"/></clipPath><clipPath id="89f28c5344"><path d="M 14.566406 16.257812 C 18.628906 16.839844 18.484375 18.074219 18.195312 18.289062 C 17.902344 18.507812 17.105469 18.363281 16.816406 18.144531 C 16.597656 18 16.453125 17.492188 16.523438 17.128906 C 16.597656 16.839844 17.175781 16.332031 17.46875 16.257812 C 17.832031 16.183594 18.265625 16.402344 18.484375 16.621094 C 18.703125 16.839844 18.773438 17.347656 18.703125 17.636719 C 18.554688 18 18.121094 18.289062 17.613281 18.433594 C 16.742188 18.726562 14.417969 18.652344 13.839844 18.144531 C 13.476562 17.925781 13.402344 17.273438 13.546875 16.984375 C 13.621094 16.621094 14.566406 16.257812 14.566406 16.257812 " clip-rule="nonzero"/></clipPath><clipPath id="e27aca8646"><path d="M 12 20 L 18 20 L 18 25.347656 L 12 25.347656 Z M 12 20 " clip-rule="nonzero"/></clipPath><clipPath id="e5f5ccbb0e"><path d="M 0.484375 3.570312 L 29.515625 3.570312 L 29.515625 13 L 0.484375 13 Z M 0.484375 3.570312 " clip-rule="nonzero"/></clipPath><clipPath id="3ca08becf5"><path d="M 14.890625 15.585938 L 15.238281 15.585938 L 15.238281 15.910156 L 14.890625 15.910156 Z M 14.890625 15.585938 " clip-rule="nonzero"/></clipPath><clipPath id="502c2b9715"><path d="M 15.21875 15.824219 C 14.566406 16.039062 15.144531 15.605469 15.144531 15.605469 " clip-rule="nonzero"/></clipPath><clipPath id="facdbaac65"><path d="M 13.167969 16.570312 L 16.230469 16.570312 L 16.230469 17.492188 L 13.167969 17.492188 Z M 13.167969 16.570312 " clip-rule="nonzero"/></clipPath><clipPath id="b93b9b55dc"><path d="M 16.160156 17.417969 C 13.113281 16.984375 15.363281 16.476562 15.726562 16.695312 C 15.871094 16.839844 15.796875 17.417969 15.796875 17.417969 C 15.796875 17.417969 15.796875 16.695312 15.796875 16.695312 C 15.796875 16.695312 15.871094 17.273438 15.726562 17.417969 C 15.363281 17.636719 13.183594 17.054688 13.183594 16.910156 C 13.183594 16.765625 15.796875 16.402344 16.160156 16.695312 C 16.304688 16.839844 16.160156 17.417969 16.160156 17.417969 " clip-rule="nonzero"/></clipPath></defs><g clip-path="url(#0aa322226e)"><g clip-path="url(#89f28c5344)"><path fill="#ffedd8" d="M 10.644531 13.355469 L 21.691406 13.355469 L 21.691406 21.410156 L 10.644531 21.410156 Z M 10.644531 13.355469 " fill-opacity="1" fill-rule="nonzero"/></g></g><g clip-path="url(#e27aca8646)"><path fill="#ffedd8" d="M 14.902344 20.433594 C 13.542969 20.433594 12.429688 21.546875 12.429688 22.90625 C 12.429688 24.265625 13.542969 25.382812 14.902344 25.382812 C 16.261719 25.382812 17.378906 24.265625 17.378906 22.90625 C 17.378906 21.523438 16.261719 20.433594 14.902344 20.433594 Z M 14.902344 20.433594 " fill-opacity="1" fill-rule="nonzero"/></g><path fill="#ffedd8" d="M 14.902344 14.570312 C 12.628906 14.570312 10.492188 15.464844 8.886719 17.046875 C 8.238281 17.691406 8.238281 18.738281 8.886719 19.386719 C 9.199219 19.699219 9.621094 19.875 10.066406 19.875 C 10.511719 19.875 10.9375 19.699219 11.25 19.386719 C 12.230469 18.40625 13.523438 17.871094 14.902344 17.871094 C 16.285156 17.871094 17.601562 18.40625 18.582031 19.386719 C 18.894531 19.699219 19.316406 19.875 19.761719 19.875 C 20.207031 19.875 20.632812 19.699219 20.945312 19.386719 C 21.589844 18.738281 21.589844 17.691406 20.945312 17.046875 C 19.316406 15.464844 17.175781 14.570312 14.902344 14.570312 Z M 14.902344 14.570312 " fill-opacity="1" fill-rule="nonzero"/><g clip-path="url(#e5f5ccbb0e)"><path fill="#ffedd8" d="M 28.675781 9.355469 C 25 5.679688 20.097656 3.652344 14.902344 3.652344 C 9.710938 3.652344 4.808594 5.65625 1.128906 9.335938 C 0.484375 9.980469 0.484375 11.027344 1.128906 11.675781 C 1.441406 11.988281 1.867188 12.164062 2.3125 12.164062 C 2.757812 12.164062 3.179688 11.988281 3.492188 11.675781 C 6.523438 8.644531 10.578125 6.972656 14.902344 6.972656 C 19.226562 6.972656 23.285156 8.644531 26.335938 11.695312 C 26.648438 12.007812 27.074219 12.1875 27.519531 12.1875 C 27.964844 12.1875 28.386719 12.007812 28.699219 11.695312 C 29.324219 11.050781 29.324219 10.003906 28.675781 9.355469 Z M 28.675781 9.355469 " fill-opacity="1" fill-rule="nonzero"/></g><path fill="#ffedd8" d="M 14.902344 9.246094 C 11.203125 9.246094 7.726562 10.671875 5.097656 13.277344 C 4.785156 13.589844 4.605469 14.015625 4.605469 14.460938 C 4.605469 14.90625 4.785156 15.328125 5.097656 15.640625 C 5.410156 15.953125 5.832031 16.132812 6.277344 16.132812 C 6.722656 16.132812 7.148438 15.953125 7.460938 15.640625 C 9.441406 13.65625 12.09375 12.566406 14.902344 12.566406 C 17.710938 12.566406 20.363281 13.65625 22.347656 15.640625 C 22.660156 15.953125 23.082031 16.132812 23.527344 16.132812 C 23.972656 16.132812 24.398438 15.953125 24.710938 15.640625 C 25.023438 15.328125 25.199219 14.90625 25.199219 14.460938 C 25.199219 14.015625 25.023438 13.589844 24.710938 13.277344 C 22.078125 10.695312 18.601562 9.246094 14.902344 9.246094 Z M 14.902344 9.246094 " fill-opacity="1" fill-rule="nonzero"/><g clip-path="url(#3ca08becf5)"><g clip-path="url(#502c2b9715)"><path fill="#ffedd8" d="M 11.660156 12.703125 L 18.199219 12.703125 L 18.199219 19.015625 L 11.660156 19.015625 Z M 11.660156 12.703125 " fill-opacity="1" fill-rule="nonzero"/></g></g><g clip-path="url(#facdbaac65)"><g clip-path="url(#b93b9b55dc)"><path fill="#ffedd8" d="M 10.210938 13.789062 L 19.0625 13.789062 L 19.0625 20.324219 L 10.210938 20.324219 Z M 10.210938 13.789062 " fill-opacity="1" fill-rule="nonzero"/></g></g></svg>